# xmcd
#
# Track frame offsets:
#	150
#	15794
#	32973
#	51252
#	70329
#	88854
#	104293
#	119685
#	134783
#	151040
#	166928
#	188396
#	205338
#	219042
#
# Disc length: 2993 seconds
#
# Revision: 1
# Processed by: cddbd v1.5.2PL0 Copyright (c) Steve Scherf et al.
# Submitted via: audiograbber 1.83.01
#
DISCID=ba0baf0e
DTITLE=Marit Larsen - If A Song Could Get Me You
DYEAR=1900
DGENRE=
TTITLE0=If A Song Could Get Me You
TTITLE1=Don't Save Me
TTITLE2=This Is Me This Is You
TTITLE3=Under The Surface
TTITLE4=Only A Fool
TTITLE5=Solid Ground	
TTITLE6=Ten Steps
TTITLE7=This Time Tomorrow
TTITLE8=I've Heard Your Love Songs
TTITLE9=The Chase	
TTITLE10=Is It Love	
TTITLE11=Steal My Heart
TTITLE12=Poison Passion
TTITLE13=In Came The Light
EXTD=
EXTT0=
EXTT1=
EXTT2=
EXTT3=
EXTT4=
EXTT5=
EXTT6=
EXTT7=
EXTT8=
EXTT9=
EXTT10=
EXTT11=
EXTT12=
EXTT13=
PLAYORDER=
